<svg xmlns="http://www.w3.org/2000/svg" xmlns:xlink="http://www.w3.org/1999/xlink" version="1.1" width="3079.6812749003984" height="832.6693227091633">
	<rect fill="#db3236" width="250" height="100"/>
	<g transform="scale(3.9840637450199203) translate(10, 10)">
		<defs id="SvgjsDefs1108"></defs>
		<g id="SvgjsG1109" featureKey="root" fill="#db3236"></g>
		<g id="SvgjsG1110" featureKey="container1" fill="#ffffff" transform="matrix(1.4073113207547172,0,0,1.4073113207547172,20,20)">
			<rect xmlns="http://www.w3.org/2000/svg" width="106" height="106" rx="15" ry="15" fill=""></rect>
		</g>
		<g id="SvgjsG1111" featureKey="symbol1" fill="#db3236" transform="matrix(1.0772035622337426,0,0,1.0772035622337426,40.70231264260053,40.81070633180651)">
			<g xmlns="http://www.w3.org/2000/svg">
				<path d="M64.577,26.52c0.918-1.178,1.77-2.215,2.582-3.15c-2.875-1.141-6.812-3.749-12.605-8.341   C57.305,21.654,60.338,25.919,64.577,26.52z"></path>
				<path
					d="M91.046,20.687c-2.857-5.793-5.767-4.673-6.86-4.249c-10.68,4.121-12.284,5.196-25.181,23.737   c-3.567,5.131-7.51,9.032-11.391,12.029l0,0c-0.47,0.363-0.937,0.709-1.404,1.045l0,0c-8.65,6.222-16.715,7.984-19.225,8.396   c-0.163,0.226-0.275,0.45-0.428,0.676l0,0c-0.001,0.001-0.001,0.002-0.001,0.003c-0.56,0.825-1.064,1.649-1.487,2.47   c-0.02,0.039-0.033,0.078-0.053,0.117c-0.401,0.791-0.76,1.581-1.034,2.37v0l0,0c-1.842,5.306-0.819,10.564,3.105,15.924   c2.822,0.885,17.718,4.973,29.631-3.466c8.985-6.363,16.468-5.556,22.484-4.911c3.721,0.4,6.663,0.713,9.026-0.732   C95.768,69.486,97.641,34.049,91.046,20.687z M57.135,56.724c-2.148,0-3.895-1.748-3.895-3.897c0-2.148,1.747-3.895,3.895-3.895   s3.895,1.747,3.895,3.895C61.03,54.976,59.284,56.724,57.135,56.724z"></path>
				<path d="M44.179,50.36c-2.335-0.874-4.573-2.395-6.692-4.148c0.676,2.907,1.574,5.311,2.864,6.628   C41.602,52.111,42.88,51.291,44.179,50.36z"></path>
				<path d="M4.918,42.185c3.096,9.258,8.399,16.948,15.983,23.318c0.635-1.645,1.565-3.286,2.658-4.925   C16.717,56.293,10.603,50.291,4.918,42.185z"></path>
			</g>
		</g>
		<g id="SvgjsG1112" featureKey="text1" fill="#ffffff" transform="matrix(4.891303308406935,0,0,4.891303308406935,185.18478472556149,26.80435388514006)">
			<path
				d="M0.78 20 l0 -2.32 l1.44 0 l0 -8.58 l-1.44 0 l0 -2.32 l6.62 0 c3.66 0 4.96 1.64 4.96 3.76 c0 1.98 -1.12 3.04 -2.34 3.62 c0.52 0.28 0.9 0.8 1.24 1.74 c0.28 0.78 0.4 1.5 1.7 1.5 l0.16 0 l-0.58 2.72 c-0.28 0.04 -0.54 0.06 -0.78 0.06 c-2.52 0 -3.16 -1.82 -3.66 -3.16 c-0.58 -1.82 -0.78 -1.98 -1.9 -1.98 l-0.62 0 l0 2.64 l1.44 0 l0 2.32 l-6.24 0 z M5.58 12.52 l1.74 0 c1.22 0 1.68 -0.76 1.68 -1.54 c0 -1.22 -0.56 -1.68 -1.68 -1.68 l-1.74 0 l0 3.22 z M13.9 20 l0 -2.26 l1.06 0 l0 -9.84 l-1.26 0 l0 -2.26 l4.38 0 l0 6.24 c0.38 -0.64 1.2 -1.5 2.88 -1.5 c1.38 0 2.98 0.56 2.98 3.48 l0 3.88 l1.06 0 l0 2.26 l-5.04 0 l0 -2.26 l0.86 0 l0 -3.08 c0 -1.12 -0.26 -1.64 -0.92 -1.64 c-1.08 0 -1.66 1.4 -1.82 1.96 l0 2.76 l0.86 0 l0 2.26 l-5.04 0 z M26.08 20 l0 -2.26 l1.06 0 l0 -4.82 l-1.36 0 l0 -2.26 l4.48 0 l0 7.08 l1.06 0 l0 2.26 l-5.24 0 z M26.62 7.4 c0 -1.02 0.84 -1.84 1.86 -1.84 c1.04 0 1.86 0.82 1.86 1.84 s-0.82 1.86 -1.86 1.86 c-1.02 0 -1.86 -0.84 -1.86 -1.86 z M32.46 20 l0 -2.26 l1.06 0 l0 -4.82 l-1.36 0 l0 -2.26 l4.26 0 l0 1.68 c0.24 -0.64 1.02 -1.96 3.1 -1.96 c1.38 0 2.98 0.56 2.98 3.48 l0 3.88 l1.06 0 l0 2.26 l-5.04 0 l0 -2.26 l0.86 0 l0 -3.08 c0 -1.1 -0.26 -1.64 -0.9 -1.64 c-1.12 0 -1.68 1.4 -1.84 1.96 l0 2.76 l0.86 0 l0 2.26 l-5.04 0 z M49.339999999999996 20.28 c-3.78 0 -4.92 -2.34 -4.92 -5.02 c0 -2.62 1.08 -4.88 4.86 -4.88 c3.86 0 4.88 2.34 4.88 4.92 c0 2.74 -1.14 4.98 -4.82 4.98 z M49.3 17.96 c1.36 0 1.62 -1.26 1.62 -2.62 s-0.26 -2.64 -1.64 -2.64 c-1.36 0 -1.62 1.28 -1.62 2.6 c0 1.34 0.26 2.66 1.64 2.66 z  M59.3 20 l0 -2.32 l1.44 0 l0 -8.58 l-1.44 0 l0 -2.32 l6.34 0 l2.64 7.68 l2.62 -7.68 l6.22 0 l0 2.32 l-1.44 0 l0 8.58 l1.44 0 l0 2.32 l-6.04 0 l0 -2.32 l1.34 0 l0 -7.28 l-3.32 9.6 l-1.8 0 l-3.3 -9.54 l0 7.22 l1.34 0 l0 2.32 l-6.04 0 z M84.85999999999999 17.02 l2.74 0.48 c-0.52 1.74 -1.76 2.78 -4.26 2.78 c-3.12 0 -4.92 -1.62 -4.92 -4.84 c0 -2.6 1.16 -5.06 4.78 -5.06 c2.94 0 4.4 1.62 4.4 4.64 l0 1.02 l-5.92 0 c0.08 1.34 0.46 1.92 1.76 1.92 c0.8 0 1.28 -0.22 1.42 -0.94 z M81.71999999999998 14.14 l2.6 0 l0 -0.02 c0 -1.1 -0.42 -1.52 -1.24 -1.52 c-0.76 0 -1.2 0.36 -1.36 1.54 z M95.63999999999999 20 l-0.12 -1.26 c-0.46 0.74 -1.18 1.54 -2.74 1.54 c-3.14 0 -4.14 -2.7 -4.14 -5 c0 -2.92 1.68 -4.9 4.32 -4.9 c1.06 0 1.66 0.34 2.1 0.94 l0 -3.42 l-1.26 0 l0 -2.26 l4.38 0 l0 12.1 l1.06 0 l0 2.26 l-3.6 0 z M93.41999999999999 17.96 c1.12 0 1.64 -0.84 1.64 -2.76 c0 -1.36 -0.26 -2.5 -1.6 -2.5 c-1.1 0 -1.58 0.78 -1.58 2.68 c0 1.76 0.42 2.58 1.54 2.58 z M100.37999999999998 20 l0 -2.26 l1.06 0 l0 -4.82 l-1.36 0 l0 -2.26 l4.48 0 l0 7.08 l1.06 0 l0 2.26 l-5.24 0 z M100.91999999999999 7.4 c0 -1.02 0.84 -1.84 1.86 -1.84 c1.04 0 1.86 0.82 1.86 1.84 s-0.82 1.86 -1.86 1.86 c-1.02 0 -1.86 -0.84 -1.86 -1.86 z M109.87999999999998 13.9 l-3.1 -0.58 c-0.02 -0.1 -0.02 -0.2 -0.02 -0.3 c0 -1.48 1.44 -2.64 4.3 -2.64 s3.92 1.18 3.92 3.76 l0 2.2 c0 0.86 0.02 1.36 0.66 1.36 c0.12 0 0.26 -0.02 0.44 -0.06 l-0.56 2.46 c-0.34 0.06 -0.64 0.08 -0.9 0.08 c-1.48 0 -2.12 -0.7 -2.34 -1.3 c-0.48 0.68 -1.2 1.4 -2.66 1.4 c-1.7 0 -3.16 -0.96 -3.16 -2.74 c0 -2.16 2.14 -3.14 5.4 -3.16 l0 -0.28 c0 -1.06 -0.26 -1.44 -1.02 -1.44 c-0.64 0 -0.98 0.26 -0.98 0.96 c0 0.08 0 0.18 0.02 0.28 z M111.85999999999999 16.88 l0 -0.74 c-1.22 0.02 -2.26 0.24 -2.26 1.16 c0 0.52 0.34 0.76 0.86 0.76 c0.6 0 1.32 -0.32 1.4 -1.18 z"></path>
		</g>
		<g id="SvgjsG1113" featureKey="text3" fill="#ffffff" transform="matrix(1,0,0,1,194,141)">
			<path d=""></path>
		</g>
	</g>
</svg>
